<?xml version="1.0" encoding="utf-8"?>
<!-- Generator: Adobe Illustrator 16.0.3, SVG Export Plug-In . SVG Version: 6.00 Build 0)  -->
<!DOCTYPE svg PUBLIC "-//W3C//DTD SVG 1.1//EN" "http://www.w3.org/Graphics/SVG/1.1/DTD/svg11.dtd">
<svg version="1.1" id="Layer_1" xmlns="http://www.w3.org/2000/svg" xmlns:xlink="http://www.w3.org/1999/xlink" x="0px" y="0px"
	 width="512px" height="512px" viewBox="0 0 512 512" enable-background="new 0 0 512 512" xml:space="preserve">
<g>
	<g>
		<polygon fill="#8CCADF" points="360.907,463.771 276.052,499.688 202.879,479.24 63.042,505.767 5.598,440.864 31.363,356.288 
			16.631,249.688 41.277,149.365 13.889,66.66 57.183,26.316 165.077,6.228 266.719,20.68 384.966,5.095 475.294,31.587 
			506.607,106.252 480.094,174.356 494.075,308.536 462.49,402.459 471.633,479.53 440.898,505.988 		"/>
		<path fill="#EDCB20" d="M384.572,10.19l87.031,25.524l29.611,70.607l-25.341,65.092l-0.879,2.256l0.251,2.408l13.743,131.895
			l-30.88,91.827l-0.717,2.132l0.265,2.233l8.696,73.312l-26.135,22.499l-74.879-39.52l-4.196-2.215l-4.369,1.85l-81.061,34.311
			l-70.361-19.663l-2.255-0.63l-2.3,0.437L64.902,500.324l-53.706-60.679l24.629-80.849l0.641-2.104l-0.301-2.179L21.715,249.952
			l24.075-97.996l0.687-2.796l-0.905-2.733L19.644,68.132l39.884-37.166l105.658-19.673l100.151,14.24l1.355,0.193l1.358-0.179
			L384.572,10.19 M385.359,0L266.744,15.633L164.969,1.162L54.838,21.667L8.135,65.188l27.943,84.383l-24.531,99.854L26.26,355.883
			L0,442.083l61.182,69.125l141.479-26.838l73.729,20.604l84.281-35.674l80.906,42.7l35.333-30.417l-9.323-78.596l31.573-93.888
			l-13.969-134.057L512,106.183l-33.016-78.724L385.359,0L385.359,0z"/>
	</g>
</g>
<g>
	<polygon fill="#231F20" points="379.946,243.66 290.997,233.426 252.657,157.372 293.795,72.757 383.438,43.32 454.074,91.207 
		452.522,180.377 	"/>
	<polygon fill="#231F20" points="262.194,137.761 150.289,228.587 98.468,404.033 51.899,468.953 118.607,414.513 176.638,245.59 
		284.601,171.543 	"/>
	<polygon fill="#231F20" points="291.163,188.7 203.249,273.152 158.184,404.601 113.68,448.676 168.097,418.264 231.254,297.945 
		322.239,212.531 	"/>
	<polygon fill="#231F20" points="331.146,238.151 253.579,312.672 239.623,371.795 198.957,410.204 253.047,378.788 
		279.838,321.237 381.165,225.886 	"/>
	<polygon fill="#231F20" points="414.263,212.64 370.956,303.294 325.551,340.94 300.39,439.336 219.649,464.547 282.682,425.865 
		305.743,331.482 354.266,289.504 377.094,226.488 	"/>
	<polygon fill="#EAE8EA" points="366.903,66.581 340.02,77.301 337.183,128.046 362.015,165.938 414.606,187.403 435.871,172.231 
		431.431,98.388 	"/>
	<polygon fill="#8E2D2D" points="387.07,92.759 387.184,121.964 422.691,130.226 420.6,106.438 	"/>
</g>
<polygon fill="#EDCB20" points="388.965,484.232 441.578,512 476.911,481.583 467.588,402.987 499.161,309.099 492.858,248.611 
	397.896,331.37 "/>
<polygon fill="#F17921" points="403.589,491.95 441.578,512 467.021,490.098 475.119,466.478 467.588,402.987 499.161,309.099 
	495.245,271.521 492.505,272.09 413.036,353.695 "/>
<path fill="#EDF9EF" d="M446.656,476.779c6.266,4.042,8.057,12.362,4.01,18.596c-4.052,6.245-12.411,8.029-18.682,3.987
	c-6.261-4.029-8.053-12.354-4-18.591C432.036,474.537,440.391,472.745,446.656,476.779z"/>
<path fill="#EDF9EF" d="M443.989,353.487c6.261,4.034,8.052,12.354,4.005,18.596c-4.057,6.237-12.422,8.021-18.677,3.995
	c-6.271-4.036-8.058-12.362-4.011-18.604C429.359,351.237,437.724,349.453,443.989,353.487z"/>
<path fill="#EDF9EF" d="M463.942,459.724c4.458,2.88,5.75,8.826,2.859,13.287c-2.901,4.456-8.87,5.727-13.344,2.852
	c-4.474-2.888-5.761-8.841-2.859-13.292C453.489,458.112,459.463,456.833,463.942,459.724z"/>
<path fill="#EDF9EF" d="M431.63,384.862c4.474,2.883,5.75,8.825,2.854,13.284c-2.891,4.458-8.865,5.729-13.334,2.849
	c-4.474-2.883-5.76-8.828-2.864-13.287C421.182,383.258,427.15,381.979,431.63,384.862z"/>
<path fill="#EDF9EF" d="M438.067,457.07c2.688,1.729,3.458,5.3,1.724,7.972c-1.739,2.674-5.328,3.438-8.005,1.708
	c-2.688-1.729-3.458-5.297-1.719-7.971C431.802,456.104,435.385,455.333,438.067,457.07z"/>
<path fill="#EDF9EF" d="M454.025,381.662c2.688,1.734,3.453,5.297,1.719,7.971c-1.729,2.675-5.322,3.438-8.01,1.711
	c-2.678-1.731-3.448-5.294-1.709-7.974C447.755,380.703,451.344,379.933,454.025,381.662z"/>
<path fill="#EDF9EF" d="M450.646,334.75c2.688,1.729,3.459,5.292,1.719,7.971c-1.739,2.674-5.322,3.438-8.005,1.708
	c-2.688-1.729-3.453-5.3-1.714-7.972C444.376,333.784,447.959,333.021,450.646,334.75z"/>
<path fill="#EDCB20" d="M487.344,300.654c4.922,3.167,6.328,9.716,3.15,14.612c-3.188,4.901-9.76,6.305-14.682,3.13
	c-4.922-3.167-6.328-9.708-3.146-14.604C475.849,298.891,482.416,297.487,487.344,300.654z"/>
<polygon fill="#EDCB20" points="262.457,15.023 164.969,1.162 54.838,21.667 14.718,59.053 211.547,103.604 "/>
<polygon fill="#EDCB20" points="19.15,385.667 86.692,288.558 104.541,231.633 122.135,158.445 34.98,154.038 11.547,249.425 
	26.26,355.883 17.329,385.199 "/>
<polygon fill="#F17921" points="89.412,228.912 99.984,172.203 32.368,164.672 11.547,249.425 25.85,352.913 72.281,285.849 "/>
<polygon fill="#F17921" points="249.729,13.214 164.969,1.162 54.838,21.667 26.936,47.668 206.807,85.078 "/>
<path fill="#EDCB20" d="M76.594,36.078c-1.589-6.563-8.209-10.599-14.797-9.021c-6.589,1.575-10.641,8.167-9.058,14.734
	c1.589,6.557,8.203,10.591,14.797,9.016C74.119,49.224,78.177,42.633,76.594,36.078z"/>
<path fill="#EDF9EF" d="M171.984,14.175c-1.594-6.563-8.209-10.597-14.803-9.021c-6.583,1.583-10.641,8.18-9.052,14.737
	c1.583,6.563,8.203,10.597,14.792,9.013C169.505,27.328,173.563,20.737,171.984,14.175z"/>
<path fill="#EDCB20" d="M96.786,27.808c-1.13-4.683-5.864-7.57-10.567-6.445c-4.703,1.133-7.6,5.846-6.475,10.528
	c1.136,4.688,5.87,7.576,10.573,6.443C95.025,37.208,97.922,32.495,96.786,27.808z"/>
<path fill="#EDF9EF" d="M138.927,15.808c-1.13-4.683-5.859-7.563-10.567-6.438c-4.709,1.125-7.604,5.838-6.469,10.521
	c1.13,4.68,5.864,7.568,10.567,6.443C137.161,25.203,140.057,20.495,138.927,15.808z"/>
<path fill="#EDCB20" d="M91.641,48.745c-0.678-2.813-3.511-4.55-6.339-3.87c-2.823,0.675-4.563,3.508-3.88,6.32
	c0.677,2.805,3.516,4.542,6.338,3.862C90.578,54.383,92.322,51.558,91.641,48.745z"/>
<path fill="#EDF9EF" d="M147.291,33.667c-0.682-2.805-3.516-4.542-6.344-3.859c-2.822,0.672-4.557,3.5-3.88,6.313
	s3.521,4.547,6.344,3.859C146.234,39.313,147.974,36.479,147.291,33.667z"/>
<path fill="#EDCB20" d="M210.26,44.995c-2.599-10.75-13.447-17.362-24.229-14.771c-10.797,2.583-17.443,13.38-14.839,24.13
	c2.594,10.737,13.442,17.354,24.234,14.766C206.213,66.542,212.849,55.729,210.26,44.995z"/>
<path fill="#EDCB20" d="M234.317,22.154c-1.239-5.154-6.448-8.326-11.62-7.091c-5.177,1.245-8.359,6.433-7.119,11.583
	c1.25,5.154,6.447,8.328,11.625,7.083C232.38,32.495,235.563,27.313,234.317,22.154z"/>
<path fill="#EDF9EF" d="M35.859,320.224c4.927-0.341,8.656-4.599,8.313-9.5c-0.344-4.917-4.615-8.62-9.547-8.287
	c-4.938,0.349-8.651,4.604-8.308,9.516C26.65,316.862,30.927,320.563,35.859,320.224z"/>
<path fill="#EDF9EF" d="M69.281,242.162c3.286-0.229,5.771-3.063,5.541-6.338c-0.224-3.273-3.078-5.745-6.369-5.516
	c-3.281,0.221-5.761,3.063-5.537,6.333C63.146,239.917,65.994,242.383,69.281,242.162z"/>
<path fill="#EDCB20" d="M77.521,198.146c6.578-0.458,11.536-6.13,11.078-12.672c-0.453-6.557-6.151-11.495-12.729-11.042
	c-6.572,0.458-11.531,6.13-11.072,12.68C65.25,193.654,70.947,198.599,77.521,198.146z"/>
<path fill="#EDCB20" d="M29.406,261.688c6.578-0.338,11.635-5.922,11.297-12.479c-0.344-6.555-5.953-11.596-12.537-11.25
	c-6.578,0.341-11.635,5.932-11.297,12.487C17.213,256.995,22.828,262.037,29.406,261.688z"/>
<path fill="#EDCB20" d="M31.65,235.32c4.225-0.292,7.412-3.945,7.115-8.153c-0.287-4.208-3.948-7.388-8.178-7.097
	c-4.229,0.3-7.416,3.945-7.119,8.154C23.76,232.438,27.422,235.612,31.65,235.32z"/>
<path fill="#EDCB20" d="M47.463,188.396c4.229-0.292,7.417-3.938,7.115-8.146c-0.287-4.208-3.948-7.38-8.172-7.088
	c-4.229,0.284-7.417,3.938-7.125,8.146C39.572,185.516,43.234,188.688,47.463,188.396z"/>
<path fill="#EDCB20" d="M24.619,277.745c2.578-0.183,4.531-2.404,4.35-4.979c-0.178-2.57-2.422-4.516-5-4.333
	c-2.584,0.172-4.531,2.401-4.354,4.979C19.797,275.979,22.025,277.925,24.619,277.745z"/>
<path fill="#EDCB20" d="M54.453,208.737c2.583-0.175,4.531-2.409,4.354-4.979c-0.182-2.575-2.416-4.513-5-4.333
	c-2.583,0.174-4.531,2.403-4.354,4.979C49.635,206.974,51.869,208.912,54.453,208.737z"/>
<path fill="#EDCB20" d="M41.406,273.216c2.578-0.18,4.525-2.409,4.349-4.987c-0.177-2.568-2.417-4.505-4.995-4.333
	c-2.588,0.182-4.536,2.412-4.359,4.979C36.578,271.453,38.822,273.391,41.406,273.216z"/>
</svg>
